name E:\3-PhD\Data\MocapData\ElaboratedData\009\pre\dynamicElaborations\RunN2\RunN2.mot
datacolumns 37
datarows 11
range 1.98 1.985
endheader

time	    ground_force1_vx	    ground_force1_vy	    ground_force1_vz	    ground_force1_px	    ground_force1_py	    ground_force1_pz	    ground_force2_vx	    ground_force2_vy	    ground_force2_vz	    ground_force2_px	    ground_force2_py	    ground_force2_pz	    ground_force3_vx	    ground_force3_vy	    ground_force3_vz	    ground_force3_px	    ground_force3_py	    ground_force3_pz	    ground_force4_vx	    ground_force4_vy	    ground_force4_vz	    ground_force4_px	    ground_force4_py	    ground_force4_pz	    ground_torque1_x	    ground_torque1_y	    ground_torque1_z	    ground_torque2_x	    ground_torque2_y	    ground_torque2_z	    ground_torque3_x	    ground_torque3_y	    ground_torque3_z	    ground_torque4_x	    ground_torque4_y	    ground_torque4_z	
1.98	          0.00000000	          0.00000000	          0.00000000	          0.00000000	          0.00000000	          0.00000000	          0.00000000	          0.00000000	          0.00000000	          0.00000000	          0.00000000	          0.00000000	       -454.52944490	       2280.55475205	       -989.80189343	         -0.69973817	          0.00000000	          0.54235864	          0.00000000	          0.00000000	          0.00000000	          0.00000000	          0.00000000	          0.00000000	          0.00000000	          0.00000000	          0.00000000	          0.00000000	          0.00000000	          0.00000000	         -0.00000000	        -15.83666640	          0.00000000	          0.00000000	          0.00000000	          0.00000000	
1.9805	          0.00000000	          0.00000000	          0.00000000	          0.00000000	          0.00000000	          0.00000000	          0.00000000	          0.00000000	          0.00000000	          0.00000000	          0.00000000	          0.00000000	       -453.96122813	       2285.35624528	       -993.41809957	         -0.69934619	          0.00000000	          0.54233341	          0.00000000	          0.00000000	          0.00000000	          0.00000000	          0.00000000	          0.00000000	          0.00000000	          0.00000000	          0.00000000	          0.00000000	          0.00000000	          0.00000000	         -0.00000000	        -15.74263276	          0.00000000	          0.00000000	          0.00000000	          0.00000000	
1.981	          0.00000000	          0.00000000	          0.00000000	          0.00000000	          0.00000000	          0.00000000	          0.00000000	          0.00000000	          0.00000000	          0.00000000	          0.00000000	          0.00000000	       -453.29009301	       2289.72969503	       -996.87697759	         -0.69894695	          0.00000000	          0.54230797	          0.00000000	          0.00000000	          0.00000000	          0.00000000	          0.00000000	          0.00000000	          0.00000000	          0.00000000	          0.00000000	          0.00000000	          0.00000000	          0.00000000	         -0.00000000	        -15.64489946	          0.00000000	          0.00000000	          0.00000000	          0.00000000	
1.9815	          0.00000000	          0.00000000	          0.00000000	          0.00000000	          0.00000000	          0.00000000	          0.00000000	          0.00000000	          0.00000000	          0.00000000	          0.00000000	          0.00000000	       -452.51548287	       2293.68671434	      -1000.18356718	         -0.69854078	          0.00000000	          0.54228236	          0.00000000	          0.00000000	          0.00000000	          0.00000000	          0.00000000	          0.00000000	          0.00000000	          0.00000000	          0.00000000	          0.00000000	          0.00000000	          0.00000000	         -0.00000000	        -15.54363344	          0.00000000	          0.00000000	          0.00000000	          0.00000000	
1.982	          0.00000000	          0.00000000	          0.00000000	          0.00000000	          0.00000000	          0.00000000	          0.00000000	          0.00000000	          0.00000000	          0.00000000	          0.00000000	          0.00000000	       -451.63688447	       2297.23898381	      -1003.34285119	         -0.69812800	          0.00000000	          0.54225665	          0.00000000	          0.00000000	          0.00000000	          0.00000000	          0.00000000	          0.00000000	          0.00000000	          0.00000000	          0.00000000	          0.00000000	          0.00000000	          0.00000000	         -0.00000000	        -15.43899683	          0.00000000	          0.00000000	          0.00000000	          0.00000000	
1.9825	          0.00000000	          0.00000000	          0.00000000	          0.00000000	          0.00000000	          0.00000000	          0.00000000	          0.00000000	          0.00000000	          0.00000000	          0.00000000	          0.00000000	       -450.65383275	       2300.39821403	      -1006.35973052	         -0.69770894	          0.00000000	          0.54223088	          0.00000000	          0.00000000	          0.00000000	          0.00000000	          0.00000000	          0.00000000	          0.00000000	          0.00000000	          0.00000000	          0.00000000	          0.00000000	          0.00000000	         -0.00000000	        -15.33114630	          0.00000000	          0.00000000	          0.00000000	          0.00000000	
1.983	          0.00000000	          0.00000000	          0.00000000	          0.00000000	          0.00000000	          0.00000000	          0.00000000	          0.00000000	          0.00000000	          0.00000000	          0.00000000	          0.00000000	       -449.56591092	       2303.17610934	      -1009.23900881	         -0.69728394	          0.00000000	          0.54220510	          0.00000000	          0.00000000	          0.00000000	          0.00000000	          0.00000000	          0.00000000	          0.00000000	          0.00000000	          0.00000000	          0.00000000	          0.00000000	          0.00000000	         -0.00000000	        -15.22023315	          0.00000000	          0.00000000	          0.00000000	          0.00000000	
1.9835	          0.00000000	          0.00000000	          0.00000000	          0.00000000	          0.00000000	          0.00000000	          0.00000000	          0.00000000	          0.00000000	          0.00000000	          0.00000000	          0.00000000	       -448.37274707	       2305.58433870	      -1011.98538660	         -0.69685332	          0.00000000	          0.54217935	          0.00000000	          0.00000000	          0.00000000	          0.00000000	          0.00000000	          0.00000000	          0.00000000	          0.00000000	          0.00000000	          0.00000000	          0.00000000	          0.00000000	         -0.00000000	        -15.10640366	          0.00000000	          0.00000000	          0.00000000	          0.00000000	
1.984	          0.00000000	          0.00000000	          0.00000000	          0.00000000	          0.00000000	          0.00000000	          0.00000000	          0.00000000	          0.00000000	          0.00000000	          0.00000000	          0.00000000	       -447.07401438	       2307.63451095	      -1014.60345471	         -0.69641741	          0.00000000	          0.54215366	          0.00000000	          0.00000000	          0.00000000	          0.00000000	          0.00000000	          0.00000000	          0.00000000	          0.00000000	          0.00000000	          0.00000000	          0.00000000	          0.00000000	         -0.00000000	        -14.98979833	          0.00000000	          0.00000000	          0.00000000	          0.00000000	
1.9845	          0.00000000	          0.00000000	          0.00000000	          0.00000000	          0.00000000	          0.00000000	          0.00000000	          0.00000000	          0.00000000	          0.00000000	          0.00000000	          0.00000000	       -445.66943748	       2309.33814887	      -1017.09768104	         -0.69597653	          0.00000000	          0.54212809	          0.00000000	          0.00000000	          0.00000000	          0.00000000	          0.00000000	          0.00000000	          0.00000000	          0.00000000	          0.00000000	          0.00000000	          0.00000000	          0.00000000	         -0.00000000	        -14.87055054	          0.00000000	          0.00000000	          0.00000000	          0.00000000	
1.985	          0.00000000	          0.00000000	          0.00000000	          0.00000000	          0.00000000	          0.00000000	          0.00000000	          0.00000000	          0.00000000	          0.00000000	          0.00000000	          0.00000000	       -444.15879837	       2310.70666277	      -1019.47239660	         -0.69553099	          0.00000000	          0.54210266	          0.00000000	          0.00000000	          0.00000000	          0.00000000	          0.00000000	          0.00000000	          0.00000000	          0.00000000	          0.00000000	          0.00000000	          0.00000000	          0.00000000	         -0.00000000	        -14.74878684	          0.00000000	          0.00000000	          0.00000000	          0.00000000	
